<svg width="137" height="118" viewBox="0 0 137 118" fill="none" xmlns="http://www.w3.org/2000/svg">
<ellipse cx="68.7645" cy="58.8789" rx="67.8681" ry="58.3945" fill="white"/>
<path d="M106.185 58.2361C106.185 60.1438 103.868 61.6383 101.244 61.6383H96.3026L96.4107 78.6175C96.4107 78.9036 96.3798 79.1898 96.3335 79.476V81.1824C96.3335 83.5247 93.5696 85.4219 90.1572 85.4219H87.6867C87.5168 85.4219 87.347 85.4219 87.1772 85.4113C86.961 85.4219 86.7448 85.4219 86.5286 85.4219H81.5104H77.8047C74.3923 85.4219 71.6284 83.5247 71.6284 81.1824V78.6387V71.8555C71.6284 69.9795 69.4204 68.4639 66.6874 68.4639H56.8054C54.0724 68.4639 51.8644 69.9795 51.8644 71.8555V78.6387V81.1824C51.8644 83.5247 49.1005 85.4219 45.6881 85.4219H41.9824H37.0568C36.8252 85.4219 36.5936 85.4113 36.362 85.4007C36.1767 85.4113 35.9914 85.4219 35.8061 85.4219H33.3356C29.9232 85.4219 27.1594 83.5247 27.1594 81.1824V69.3118C27.1594 69.2164 27.1594 69.1104 27.1748 69.015V61.6383H22.2184C19.439 61.6383 17.2773 60.1544 17.2773 58.2361C17.2773 57.2822 17.7406 56.4343 18.8214 55.6924L58.4112 32.0042C59.4921 31.2622 60.7273 31.1562 61.8082 31.1562C62.889 31.1562 64.1243 31.3682 65.0507 31.8982L104.486 55.6924C105.721 56.4343 106.339 57.2822 106.185 58.2361Z" fill="#9393F9"/>
</svg>
